<svg xmlns="http://www.w3.org/2000/svg" xmlns:xlink="http://www.w3.org/1999/xlink" width="460" height="231" viewBox="0 0 460 231">
    <defs>
        <path id="prefix__e" d="M.456 1.46l.386 1.216 1.343 3.608 5.388-.027-1.342-3.581L5.633.778C5.488.315 5.058.002 4.573.004L1.504.019C.894.022.401.52.404 1.13c0 .112.018.223.052.33z"/>
        <path id="prefix__g" d="M8.718 0c1 1.466 1.5 2.772 1.5 3.919 0 1.146-3.406 1.915-10.218 2.307L2.441.453 8.718 0z"/>
        <path id="prefix__i" d="M9.114 3.284c3.057.923 4.772.8 5.146-.368.374-1.168-.135-2.14-1.527-2.916-1.09.456-2.183.934-3.28 1.435-1.096.5-1.21 1.117-.339 1.85z"/>
        <path id="prefix__k" d="M.191 7.629c-.255.819-.255 1.398 0 1.738.383.51 2.45 1.026 7.745 0 3.198 0 5.737-.474 7.617-1.423V6.382c-3.376 1.215-5.855 1.611-7.437 1.187-4.128 1.272-6.77 1.292-7.925.06z"/>
        <path id="prefix__m" d="M.456 1.46l.386 1.216 1.343 3.608 5.388-.027-1.342-3.581L5.633.778C5.488.315 5.058.002 4.573.004L1.504.019C.894.022.401.52.404 1.13c0 .112.018.223.052.33z"/>
        <path id="prefix__o" d="M8.718 0c1 1.466 1.5 2.772 1.5 3.919 0 1.146-3.406 1.915-10.218 2.307L2.441.453 8.718 0z"/>
        <path id="prefix__q" d="M9.114 3.284c3.057.923 4.772.8 5.146-.368.374-1.168-.135-2.14-1.527-2.916-1.09.456-2.183.934-3.28 1.435-1.096.5-1.21 1.117-.339 1.85z"/>
        <path id="prefix__s" d="M.191 7.629c-.255.819-.255 1.398 0 1.738.383.51 2.45 1.026 7.745 0 3.198 0 5.737-.474 7.617-1.423V6.382c-3.376 1.215-5.855 1.611-7.437 1.187-4.128 1.272-6.77 1.292-7.925.06z"/>
        <path id="prefix__w" d="M0 0H20V20H0z"/>
        <filter id="prefix__d" width="209.5%" height="187.1%" x="-54.7%" y="-43.5%" filterUnits="objectBoundingBox">
            <feOffset dy="2" in="SourceAlpha" result="shadowOffsetOuter1"/>
            <feGaussianBlur in="shadowOffsetOuter1" result="shadowBlurOuter1" stdDeviation="9.5"/>
            <feColorMatrix in="shadowBlurOuter1" result="shadowMatrixOuter1" values="0 0 0 0 0 0 0 0 0 0 0 0 0 0 0 0 0 0 0.08 0"/>
            <feMerge>
                <feMergeNode in="shadowMatrixOuter1"/>
                <feMergeNode in="SourceGraphic"/>
            </feMerge>
        </filter>
        <filter id="prefix__j" width="117.1%" height="125.7%" x="-8.6%" y="-12.8%" filterUnits="objectBoundingBox">
            <feOffset dy="-1" in="SourceAlpha" result="shadowOffsetInner1"/>
            <feComposite in="shadowOffsetInner1" in2="SourceAlpha" k2="-1" k3="1" operator="arithmetic" result="shadowInnerInner1"/>
            <feColorMatrix in="shadowInnerInner1" values="0 0 0 0 0.128544777 0 0 0 0 0.36223862 0 0 0 0 0.659307065 0 0 0 0.360494974 0"/>
        </filter>
        <filter id="prefix__l" width="106.4%" height="128%" x="-3.2%" y="-14%" filterUnits="objectBoundingBox">
            <feOffset dy="-1" in="SourceAlpha" result="shadowOffsetInner1"/>
            <feComposite in="shadowOffsetInner1" in2="SourceAlpha" k2="-1" k3="1" operator="arithmetic" result="shadowInnerInner1"/>
            <feColorMatrix in="shadowInnerInner1" values="0 0 0 0 0.208098323 0 0 0 0 0.55677145 0 0 0 0 1 0 0 0 1 0"/>
        </filter>
        <filter id="prefix__r" width="117.1%" height="125.7%" x="-8.6%" y="-12.8%" filterUnits="objectBoundingBox">
            <feOffset dy="-1" in="SourceAlpha" result="shadowOffsetInner1"/>
            <feComposite in="shadowOffsetInner1" in2="SourceAlpha" k2="-1" k3="1" operator="arithmetic" result="shadowInnerInner1"/>
            <feColorMatrix in="shadowInnerInner1" values="0 0 0 0 0.128544777 0 0 0 0 0.36223862 0 0 0 0 0.659307065 0 0 0 0.360494974 0"/>
        </filter>
        <filter id="prefix__t" width="106.4%" height="128%" x="-3.2%" y="-14%" filterUnits="objectBoundingBox">
            <feOffset dy="-1" in="SourceAlpha" result="shadowOffsetInner1"/>
            <feComposite in="shadowOffsetInner1" in2="SourceAlpha" k2="-1" k3="1" operator="arithmetic" result="shadowInnerInner1"/>
            <feColorMatrix in="shadowInnerInner1" values="0 0 0 0 0.208098323 0 0 0 0 0.55677145 0 0 0 0 1 0 0 0 1 0"/>
        </filter>
        <filter id="prefix__u" width="104.8%" height="119.2%" x="-2.4%" y="-7.7%" filterUnits="objectBoundingBox">
            <feOffset dy="1" in="SourceAlpha" result="shadowOffsetOuter1"/>
            <feGaussianBlur in="shadowOffsetOuter1" result="shadowBlurOuter1" stdDeviation="1.5"/>
            <feColorMatrix in="shadowBlurOuter1" result="shadowMatrixOuter1" values="0 0 0 0 0 0 0 0 0 0 0 0 0 0 0 0 0 0 0.12 0"/>
            <feOffset dy="1" in="SourceAlpha" result="shadowOffsetOuter2"/>
            <feGaussianBlur in="shadowOffsetOuter2" result="shadowBlurOuter2" stdDeviation="1"/>
            <feColorMatrix in="shadowBlurOuter2" result="shadowMatrixOuter2" values="0 0 0 0 0 0 0 0 0 0 0 0 0 0 0 0 0 0 0.1 0"/>
            <feMerge>
                <feMergeNode in="shadowMatrixOuter1"/>
                <feMergeNode in="shadowMatrixOuter2"/>
            </feMerge>
        </filter>
        <rect id="prefix__a" width="460" height="130" x="0" y=".167" rx="32"/>
        <rect id="prefix__v" width="208" height="52" x="0" y="0" rx="4"/>
        <linearGradient id="prefix__c" x1="100%" x2="0%" y1="51.028%" y2="48.972%">
            <stop offset="0%" stop-color="#E0F6FF"/>
            <stop offset="100%" stop-color="#2083FF"/>
        </linearGradient>
        <mask id="prefix__b" width="460" height="130" x="0" y="0" fill="#fff" maskContentUnits="userSpaceOnUse" maskUnits="objectBoundingBox">
            <use xlink:href="#prefix__a"/>
        </mask>
    </defs>
    <g fill="none" fill-rule="evenodd">
        <g transform="translate(0 36) translate(0 63.833)">
            <use fill="#FFF" stroke="#CED4DA" stroke-dasharray="4" stroke-width="2" mask="url(#prefix__b)" xlink:href="#prefix__a"/>
            <text font-family="SpoqaHanSans-Bold, SpoqaHanSans" font-size="16" font-weight="bold">
                <tspan x="144.268" y="70.167" fill="#343A40">아직 카테고리가 없어요…</tspan>  <tspan x="80.268" y="102.167" fill="#868E96" font-family="SpoqaHanSans-Regular, SpoqaHanSans" font-weight="normal">버튼을 눌러 새로운 카테고리를 생성해주세요.</tspan>
            </text>
        </g>
        <path fill="url(#prefix__c)" d="M23.95 64l-4.35 7H126v4H19.987l3.964 7.064L0 73l23.95-9z" transform="translate(0 36)"/>
        <g filter="url(#prefix__d)" transform="translate(0 36) rotate(13 156.392 1406.53)">
            <path fill="#FFF" d="M24.382 12.995H50.095V58.614H24.382z"/>
            <g>
                <path fill="#FFF" d="M24.058 70.961C10.76 70.961 0 61.477 0 48.174V24.087C0 10.784 10.781 0 24.08 0c13.3 0 24.08 10.784 24.08 24.087v24.087c0 13.303-10.802 22.787-24.102 22.787zm-.029-13.963c4.412 0 8.006-3.524 8.16-7.93l.006-.296V24.094c0-4.543-3.656-8.226-8.166-8.226-4.411 0-8.006 3.525-8.16 7.931l-.005.295v24.678c0 4.543 3.656 8.226 8.165 8.226z" transform="translate(12.77)"/>
                <path fill="#358EFF" d="M40.134 16.043c4.337 0 7.87 3.44 8.022 7.742l.005.288V48.16c0 13.303-10.781 24.087-24.08 24.087C10.78 72.247 0 61.463 0 48.16V24.073l.005-.288c.152-4.301 3.685-7.742 8.022-7.742s7.87 3.44 8.022 7.742l.005.288V48.16c0 4.434 3.593 8.029 8.026 8.029 4.337 0 7.87-3.44 8.022-7.741l.005-.288V24.073l.005-.288c.152-4.301 3.685-7.742 8.022-7.742z" transform="translate(12.77)"/>
            </g>
            <g>
                <path fill="#358EFF" stroke="#358EFF" stroke-width=".6" d="M9.046 0C7.501 3.857 6.728 7.305 6.728 10.342c0 3.037.773 5.993 2.318 8.868h4.317c-1.546-2.483-2.318-5.415-2.318-8.798 0-3.382.772-6.853 2.318-10.412H9.046z" transform="scale(-1 1) rotate(23 -178.546 -109.65)"/>
                <g transform="scale(-1 1) rotate(23 -178.546 -109.65) translate(6.175 13.63)">
                    <mask id="prefix__f" fill="#fff">
                        <use xlink:href="#prefix__e"/>
                    </mask>
                    <use fill="#FFF" xlink:href="#prefix__e"/>
                    <path stroke="#979797" stroke-width=".6" d="M.283 1.848c1.683.035 3.68-.011 5.99-.139M.744 2.865c1.683.035 3.68-.011 5.99-.139" mask="url(#prefix__f)"/>
                </g>
                <g transform="scale(-1 1) rotate(23 -178.546 -109.65) rotate(-2 480.302 .108)">
                    <g transform="translate(5.336 2.463)">
                        <mask id="prefix__h" fill="#fff">
                            <use xlink:href="#prefix__g"/>
                        </mask>
                        <use fill="#F1F6FF" xlink:href="#prefix__g"/>
                        <path fill="#77B3FF" d="M10.063 1.433c-.783.127-2.571 1.417-2.43 3.672.094.402.956.261 2.585-.42.419-2.254.367-3.337-.155-3.252z" mask="url(#prefix__h)"/>
                    </g>
                    <use fill="#4899FF" xlink:href="#prefix__i"/>
                    <use fill="#000" filter="url(#prefix__j)" xlink:href="#prefix__i"/>
                    <path fill="#77B3FF" d="M6.379 5.416l1.737 2.135C5.48 8.826 3.206 9.183 1.294 8.62S-.043 7.012 3.018 5.484l1.334.177 2.027-.245z"/>
                    <path fill="#FFF" d="M3.018 5.484C.841 6.458.181 7.167 1.038 7.611c.856.444 2.543.444 5.06 0L4.855 5.942l2.684-.458 1.574-2.2V.712c-.005-.05-.284-.1-.835-.15C7.727.51 6.91.46 5.827.409l.27 2.875L4.19 5.255l-1.172.229z"/>
                    <path fill="#77B3FF" d="M4.856 6.145c-.074-.777.403-1.106 1.432-.985 1.544.182 1.116-.872 1.624-1.38.508-.51.584-.317.91-1.158.218-.56.037-1.247-.543-2.06.627.035 1.018.128 1.175.28.26.254.373 1.558.373 1.967 0 .475-.826 1.245-1.12 1.564-.296.319-.75 2.294-2.104 1.744s-1.066.716-1.066.716l-.681-.688z"/>
                    <use fill="#FFF" xlink:href="#prefix__k"/>
                    <use fill="#000" filter="url(#prefix__l)" xlink:href="#prefix__k"/>
                    <path fill="#358EFF" d="M8.536 5.49c-.129.576-.205 1.616 2.35.697 1.703-.612 3.072-1.332 4.107-2.16v-.136c-2.264.975-3.633 1.508-4.107 1.598-.712.135-1.806.03-1.432-.548.373-.577-.789-.028-.918.548z"/>
                    <path stroke="#358EFF" stroke-linejoin="bevel" stroke-width=".6" d="M4.154 5.017L6.385 5.841 5.024 4.355 7.448 4.848 5.801 3.392 8.762 3.392 5.751 2.615"/>
                    <path fill="#ADD1FF" d="M6.097 0.192L6.208 1.745 7.777 1.912 7.777 0.33z"/>
                </g>
            </g>
            <g>
                <path fill="#358EFF" stroke="#358EFF" stroke-width=".6" d="M9.046 0C7.501 3.857 6.728 7.305 6.728 10.342c0 3.037.773 5.993 2.318 8.868h4.317c-1.546-2.483-2.318-5.415-2.318-8.798 0-3.382.772-6.853 2.318-10.412H9.046z" transform="rotate(35 -85.989 57.746)"/>
                <g transform="rotate(35 -85.989 57.746) translate(6.175 13.63)">
                    <mask id="prefix__n" fill="#fff">
                        <use xlink:href="#prefix__m"/>
                    </mask>
                    <use fill="#FFF" xlink:href="#prefix__m"/>
                    <path stroke="#979797" stroke-width=".6" d="M.283 1.848c1.683.035 3.68-.011 5.99-.139M.744 2.865c1.683.035 3.68-.011 5.99-.139" mask="url(#prefix__n)"/>
                </g>
                <g transform="rotate(35 -85.989 57.746) rotate(-2 480.302 .108)">
                    <g transform="translate(5.336 2.463)">
                        <mask id="prefix__p" fill="#fff">
                            <use xlink:href="#prefix__o"/>
                        </mask>
                        <use fill="#F1F6FF" xlink:href="#prefix__o"/>
                        <path fill="#77B3FF" d="M10.063 1.433c-.783.127-2.571 1.417-2.43 3.672.094.402.956.261 2.585-.42.419-2.254.367-3.337-.155-3.252z" mask="url(#prefix__p)"/>
                    </g>
                    <use fill="#4899FF" xlink:href="#prefix__q"/>
                    <use fill="#000" filter="url(#prefix__r)" xlink:href="#prefix__q"/>
                    <path fill="#77B3FF" d="M6.379 5.416l1.737 2.135C5.48 8.826 3.206 9.183 1.294 8.62S-.043 7.012 3.018 5.484l1.334.177 2.027-.245z"/>
                    <path fill="#FFF" d="M3.018 5.484C.841 6.458.181 7.167 1.038 7.611c.856.444 2.543.444 5.06 0L4.855 5.942l2.684-.458 1.574-2.2V.712c-.005-.05-.284-.1-.835-.15C7.727.51 6.91.46 5.827.409l.27 2.875L4.19 5.255l-1.172.229z"/>
                    <path fill="#77B3FF" d="M4.856 6.145c-.074-.777.403-1.106 1.432-.985 1.544.182 1.116-.872 1.624-1.38.508-.51.584-.317.91-1.158.218-.56.037-1.247-.543-2.06.627.035 1.018.128 1.175.28.26.254.373 1.558.373 1.967 0 .475-.826 1.245-1.12 1.564-.296.319-.75 2.294-2.104 1.744s-1.066.716-1.066.716l-.681-.688z"/>
                    <use fill="#FFF" xlink:href="#prefix__s"/>
                    <use fill="#000" filter="url(#prefix__t)" xlink:href="#prefix__s"/>
                    <path fill="#358EFF" d="M8.536 5.49c-.129.576-.205 1.616 2.35.697 1.703-.612 3.072-1.332 4.107-2.16v-.136c-2.264.975-3.633 1.508-4.107 1.598-.712.135-1.806.03-1.432-.548.373-.577-.789-.028-.918.548z"/>
                    <path stroke="#358EFF" stroke-linejoin="bevel" stroke-width=".6" d="M4.154 5.017L6.385 5.841 5.024 4.355 7.448 4.848 5.801 3.392 8.762 3.392 5.751 2.615"/>
                    <path fill="#ADD1FF" d="M6.097 0.192L6.208 1.745 7.777 1.912 7.777 0.33z"/>
                </g>
            </g>
            <rect width="8.571" height="13.271" x="20.788" y="24.883" fill="#FFF" stroke="#97C5FF" stroke-width="1.106" rx="4.285"/>
            <rect width="5.53" height="8.018" x="20.328" y="27.751" fill="#495057" rx="2.765"/>
            <rect width="8.571" height="13.271" x="42.63" y="24.883" fill="#FFF" stroke="#97C5FF" stroke-width="1.106" rx="4.285"/>
            <rect width="5.53" height="8.018" x="41.914" y="27.899" fill="#495057" rx="2.765"/>
            <path stroke="#358EFF" stroke-width="4.424" d="M14.372 47.93C4.263 49.076.602 45.18 3.385 36.235"/>
            <path fill="#FFF" d="M6.29 37.444c2.138-1.963 4.983-2.259 3.817-3.894-.778-1.09-1.81-1.09-3.1 0 2.373-2.854 2.846-4.584 1.42-5.193-2.137-.913-2.612 1.976-2.71 1.976-.096 0 1.053-2.457-.357-2.902-1.41-.446-2.184 2.307-2.279 2.307-.095 0 1.268-2.225 0-2.849-1.268-.623-2.204.35-2.204 1.868 0 .825-.194 2.677-.583 5.558-.265 1.968 1.115 3.779 3.083 4.044 1.059.143 2.126-.193 2.913-.915z"/>
            <path fill="#97C5FF" d="M4.061 33.028c1.401.375 2.34.737 2.537 0 .198-.737-.778-1.64-2.18-2.015-1.4-.376-2.696-.082-2.894.655-.198.738 1.136.985 2.537 1.36z" opacity=".5"/>
            <g>
                <path stroke="#358EFF" stroke-width="4.424" d="M14.372 21.231C4.263 22.38.602 18.481 3.385 9.54" transform="matrix(-1 0 0 1 73.043 27.372)"/>
                <path fill="#FFF" d="M6.29 10.746c2.138-1.963 4.983-2.259 3.817-3.894-.778-1.09-1.81-1.09-3.1 0 2.373-2.853 2.846-4.584 1.42-5.193C6.29.746 5.826 3.577 5.826 3.577s.844-2.497-.57-2.814C3.84.447 3.194 3.04 3.08 3.04c-.113 0 1.268-2.225 0-2.849C1.813-.432.877.541.877 2.06c0 .825-.194 2.677-.583 5.558-.265 1.968 1.115 3.779 3.083 4.044 1.059.143 2.126-.193 2.913-.915z" transform="matrix(-1 0 0 1 73.043 27.372)"/>
                <path fill="#97C5FF" d="M4.061 6.33c1.401.376 2.34.738 2.537 0 .198-.737-.778-1.64-2.18-2.015-1.4-.375-2.696-.082-2.894.655-.198.738 1.136.985 2.537 1.36z" opacity=".5" transform="matrix(-1 0 0 1 73.043 27.372)"/>
            </g>
            <path stroke="#FF6B6B" stroke-linecap="round" stroke-width="1.843" d="M31.905 38.898c2.55 1.326 5.571 1.326 9.066 0"/>
        </g>
        <g transform="translate(0 36) translate(126 49)">
            <use fill="#000" filter="url(#prefix__u)" xlink:href="#prefix__v"/>
            <use fill="#F1F3F5" xlink:href="#prefix__v"/>
            <g transform="translate(96 16)">
                <mask id="prefix__x" fill="#fff">
                    <use xlink:href="#prefix__w"/>
                </mask>
                <path fill="#C3CAD1" fill-rule="nonzero" d="M10 18.333c1.15 0 2.233-.217 3.247-.65 1.015-.435 1.899-1.029 2.653-1.783s1.348-1.638 1.782-2.653c.434-1.014.651-2.097.651-3.247s-.217-2.233-.65-3.247C17.247 5.738 16.653 4.854 15.9 4.1s-1.638-1.348-2.653-1.782c-1.014-.434-2.097-.651-3.247-.651s-2.233.217-3.247.65C5.738 2.753 4.854 3.347 4.1 4.1S2.752 5.738 2.318 6.753C1.884 7.767 1.667 8.85 1.667 10s.217 2.233.65 3.247c.435 1.015 1.029 1.899 1.783 2.653s1.638 1.348 2.653 1.782c1.014.434 2.097.651 3.247.651zm0-1.666c-.923 0-1.788-.176-2.597-.528-.808-.352-1.513-.83-2.113-1.434-.6-.605-1.076-1.311-1.428-2.119-.353-.807-.529-1.672-.529-2.593 0-.922.176-1.787.529-2.594.352-.808.828-1.511 1.428-2.111.6-.6 1.305-1.075 2.113-1.427.809-.352 1.674-.528 2.597-.528s1.788.176 2.597.528c.808.352 1.513.827 2.113 1.427.6.6 1.076 1.303 1.428 2.11.353.808.529 1.673.529 2.595 0 .921-.176 1.786-.529 2.593-.352.808-.828 1.514-1.428 2.119-.6.604-1.305 1.082-2.113 1.434-.809.352-1.674.528-2.597.528z" mask="url(#prefix__x)"/>
                <rect width="1.667" height="10" x="9.167" y="5" fill="#C3CAD1" mask="url(#prefix__x)" rx=".833"/>
                <path fill="#C3CAD1" d="M10 5c.46 0 .833.373.833.833v8.334c0 .46-.373.833-.833.833-.46 0-.833-.373-.833-.833V5.833c0-.46.373-.833.833-.833z" mask="url(#prefix__x)" transform="rotate(90 10 10)"/>
            </g>
        </g>
    </g>
</svg>
