<svg width="20" height="20" viewBox="0 0 20 20" fill="none" xmlns="http://www.w3.org/2000/svg">
<g clip-path="url(#clip0_819_22613)">
<path d="M3.24984 9.99998C3.24984 8.57498 4.40817 7.41665 5.83317 7.41665H9.1665V5.83331H5.83317C3.53317 5.83331 1.6665 7.69998 1.6665 9.99998C1.6665 12.3 3.53317 14.1666 5.83317 14.1666H9.1665V12.5833H5.83317C4.40817 12.5833 3.24984 11.425 3.24984 9.99998ZM6.6665 10.8333H13.3332V9.16665H6.6665V10.8333ZM14.1665 5.83331H10.8332V7.41665H14.1665C15.5915 7.41665 16.7498 8.57498 16.7498 9.99998C16.7498 11.425 15.5915 12.5833 14.1665 12.5833H10.8332V14.1666H14.1665C16.4665 14.1666 18.3332 12.3 18.3332 9.99998C18.3332 7.69998 16.4665 5.83331 14.1665 5.83331Z" fill="#333333"/>
</g>
<defs>
<clipPath id="clip0_819_22613">
<rect width="20" height="20" fill="white"/>
</clipPath>
</defs>
</svg>
