<svg width="17" height="5" viewBox="0 0 17 5" fill="none" xmlns="http://www.w3.org/2000/svg">
<path d="M2.91602 0.924316C1.81602 0.924316 0.916016 1.82432 0.916016 2.92432C0.916016 4.02432 1.81602 4.92432 2.91602 4.92432C4.01602 4.92432 4.91602 4.02432 4.91602 2.92432C4.91602 1.82432 4.01602 0.924316 2.91602 0.924316ZM14.916 0.924316C13.816 0.924316 12.916 1.82432 12.916 2.92432C12.916 4.02432 13.816 4.92432 14.916 4.92432C16.016 4.92432 16.916 4.02432 16.916 2.92432C16.916 1.82432 16.016 0.924316 14.916 0.924316ZM8.91602 0.924316C7.81602 0.924316 6.91602 1.82432 6.91602 2.92432C6.91602 4.02432 7.81602 4.92432 8.91602 4.92432C10.016 4.92432 10.916 4.02432 10.916 2.92432C10.916 1.82432 10.016 0.924316 8.91602 0.924316Z" fill="#666666"/>
</svg>
