<svg width="5" height="18" viewBox="0 0 5 18" fill="none" xmlns="http://www.w3.org/2000/svg">
<path fill-rule="evenodd" clip-rule="evenodd" d="M4.17526 1.8733C4.17526 2.82894 3.40056 3.60363 2.44493 3.60363C1.48929 3.60363 0.7146 2.82894 0.7146 1.8733C0.7146 0.91767 1.48929 0.142975 2.44493 0.142975C3.40056 0.142975 4.17526 0.91767 4.17526 1.8733ZM4.17526 8.79466C4.17526 9.7503 3.40056 10.525 2.44493 10.525C1.48929 10.525 0.7146 9.7503 0.7146 8.79466C0.7146 7.83903 1.48929 7.06433 2.44493 7.06433C3.40056 7.06433 4.17526 7.83903 4.17526 8.79466ZM2.44493 17.4462C3.40056 17.4462 4.17526 16.6715 4.17526 15.7159C4.17526 14.7603 3.40056 13.9856 2.44493 13.9856C1.48929 13.9856 0.7146 14.7603 0.7146 15.7159C0.7146 16.6715 1.48929 17.4462 2.44493 17.4462Z" fill="#666666"/>
</svg>
