<svg xmlns="http://www.w3.org/2000/svg" width="16" height="16" viewBox="0 0 16 16">
    <g fill="none" fill-rule="evenodd">
        <g fill-rule="nonzero">
            <path fill="#FFD43B" d="M5.853.7l-1.43 2.897c-.089.18-.25.313-.443.365l-.083.018L.7 4.444 3.013 6.7c.144.14.22.335.21.534l-.009.085-.546 3.184 2.86-1.503c.178-.094.387-.106.573-.035l.078.035 2.859 1.503-.546-3.184c-.034-.198.02-.4.144-.556l.057-.063 2.313-2.255L7.81 3.98c-.2-.03-.376-.143-.485-.309l-.042-.074L5.853.7z" transform="translate(2 2)"/>
            <path fill="#868E96" d="M6.163.072c.138.069.25.18.318.318l1.43 2.897 3.196.464c.382.056.648.411.592.794-.022.152-.094.293-.204.4L9.182 7.2l.546 3.184c.065.38-.19.743-.572.808-.151.026-.308.001-.444-.07L5.853 9.618l-2.859 1.504c-.342.18-.765.048-.945-.294-.072-.137-.097-.293-.07-.444L2.523 7.2.211 4.945c-.276-.27-.282-.713-.012-.99.107-.11.248-.181.4-.204l3.197-.464L5.226.39c.17-.346.59-.489.937-.318zM5.853.7l-1.43 2.897c-.089.18-.25.313-.443.365l-.083.018L.7 4.444 3.013 6.7c.144.14.22.335.21.534l-.009.085-.546 3.184 2.86-1.503c.178-.094.387-.106.573-.035l.078.035 2.859 1.503-.546-3.184c-.034-.198.02-.4.144-.556l.057-.063 2.313-2.255L7.81 3.98c-.2-.03-.376-.143-.485-.309l-.042-.074L5.853.7z" transform="translate(2 2)"/>
        </g>
    </g>
</svg>
