<?xml version="1.0" encoding="UTF-8"?>
<svg width="260px" height="234px" viewBox="0 0 260 234" version="1.1" xmlns="http://www.w3.org/2000/svg" xmlns:xlink="http://www.w3.org/1999/xlink">
    <title>4B7B1682-93D1-4DAF-B7B4-1C429D575A3E</title>
    <defs>
        <path d="M0.593250836,1.90106476 L1.0964876,3.48438121 L1.0964876,3.48438121 L2.84492602,8.18165129 L9.86107498,8.14711113 L8.11263657,3.48438121 L7.33491347,1.01295907 C7.14538521,0.410682569 6.5856171,0.00211948758 5.9542311,0.00522777038 L1.9585116,0.0248985045 C1.1632312,0.0288136316 0.521702885,0.676689617 0.525618012,1.47197002 C0.526334935,1.61759866 0.549138608,1.76227599 0.593250836,1.90106476 Z" id="path-1"></path>
        <path d="M0.593250836,1.90106476 L1.0964876,3.48438121 L1.0964876,3.48438121 L2.84492602,8.18165129 L9.86107498,8.14711113 L8.11263657,3.48438121 L7.33491347,1.01295907 C7.14538521,0.410682569 6.5856171,0.00211948758 5.9542311,0.00522777038 L1.9585116,0.0248985045 C1.1632312,0.0288136316 0.521702885,0.676689617 0.525618012,1.47197002 C0.526334935,1.61759866 0.549138608,1.76227599 0.593250836,1.90106476 Z" id="path-3"></path>
        <path d="M11.3511789,8.2600593e-14 C12.6533714,1.90902605 13.3044677,3.60987097 13.3044677,5.10253478 C13.3044677,6.59519859 8.86964511,7.59658892 -2.13162821e-15,8.10670576 L3.17853849,0.590282646 L11.3511789,8.2600593e-14 Z" id="path-5"></path>
        <path d="M11.8674479,4.27642405 C15.8474756,5.4783639 18.0809127,5.31858438 18.5677592,3.79708552 C19.0546058,2.27558665 18.3916939,1.00989148 16.5790237,8.2600593e-14 C15.160701,0.593485866 13.7374423,1.21631563 12.3092473,1.86848928 C10.8810524,2.52066294 10.7337859,3.32330786 11.8674479,4.27642405 Z" id="path-7"></path>
        <filter x="-6.6%" y="-9.9%" width="113.1%" height="119.7%" filterUnits="objectBoundingBox" id="filter-8">
            <feOffset dx="0" dy="-1" in="SourceAlpha" result="shadowOffsetInner1"></feOffset>
            <feComposite in="shadowOffsetInner1" in2="SourceAlpha" operator="arithmetic" k2="-1" k3="1" result="shadowInnerInner1"></feComposite>
            <feColorMatrix values="0 0 0 0 0.128544777   0 0 0 0 0.36223862   0 0 0 0 0.659307065  0 0 0 0.360494974 0" type="matrix" in="shadowInnerInner1"></feColorMatrix>
        </filter>
        <path d="M0.249213965,9.9332403 C-0.0830713217,10.9997636 -0.0830713217,11.7543786 0.249213965,12.1970855 C0.747641895,12.8611458 3.43765512,13.5327064 10.3327141,12.1970855 C14.4969205,12.1970855 17.8033019,11.5791623 20.2518584,10.3433158 L20.2518584,8.30933765 C15.8550875,9.89224964 12.6272293,10.4076432 10.5682838,9.85551837 C5.19284985,11.5118183 1.75315989,11.5377256 0.249213965,9.9332403 Z" id="path-9"></path>
        <filter x="-2.5%" y="-10.7%" width="104.9%" height="121.5%" filterUnits="objectBoundingBox" id="filter-10">
            <feOffset dx="0" dy="-1" in="SourceAlpha" result="shadowOffsetInner1"></feOffset>
            <feComposite in="shadowOffsetInner1" in2="SourceAlpha" operator="arithmetic" k2="-1" k3="1" result="shadowInnerInner1"></feComposite>
            <feColorMatrix values="0 0 0 0 0.208098323   0 0 0 0 0.55677145   0 0 0 0 1  0 0 0 1 0" type="matrix" in="shadowInnerInner1"></feColorMatrix>
        </filter>
        <path d="M11.3511789,8.2600593e-14 C12.6533714,1.90902605 13.3044677,3.60987097 13.3044677,5.10253478 C13.3044677,6.59519859 8.86964511,7.59658892 -2.13162821e-15,8.10670576 L3.17853849,0.590282646 L11.3511789,8.2600593e-14 Z" id="path-11"></path>
        <path d="M11.8674479,4.27642405 C15.8474756,5.4783639 18.0809127,5.31858438 18.5677592,3.79708552 C19.0546058,2.27558665 18.3916939,1.00989148 16.5790237,8.2600593e-14 C15.160701,0.593485866 13.7374423,1.21631563 12.3092473,1.86848928 C10.8810524,2.52066294 10.7337859,3.32330786 11.8674479,4.27642405 Z" id="path-13"></path>
        <filter x="-6.6%" y="-9.9%" width="113.1%" height="119.7%" filterUnits="objectBoundingBox" id="filter-14">
            <feOffset dx="0" dy="-1" in="SourceAlpha" result="shadowOffsetInner1"></feOffset>
            <feComposite in="shadowOffsetInner1" in2="SourceAlpha" operator="arithmetic" k2="-1" k3="1" result="shadowInnerInner1"></feComposite>
            <feColorMatrix values="0 0 0 0 0.128544777   0 0 0 0 0.36223862   0 0 0 0 0.659307065  0 0 0 0.360494974 0" type="matrix" in="shadowInnerInner1"></feColorMatrix>
        </filter>
        <path d="M0.249213965,9.9332403 C-0.0830713217,10.9997636 -0.0830713217,11.7543786 0.249213965,12.1970855 C0.747641895,12.8611458 3.43765512,13.5327064 10.3327141,12.1970855 C14.4969205,12.1970855 17.8033019,11.5791623 20.2518584,10.3433158 L20.2518584,8.30933765 C15.8550875,9.89224964 12.6272293,10.4076432 10.5682838,9.85551837 C5.19284985,11.5118183 1.75315989,11.5377256 0.249213965,9.9332403 Z" id="path-15"></path>
        <filter x="-2.5%" y="-10.7%" width="104.9%" height="121.5%" filterUnits="objectBoundingBox" id="filter-16">
            <feOffset dx="0" dy="-1" in="SourceAlpha" result="shadowOffsetInner1"></feOffset>
            <feComposite in="shadowOffsetInner1" in2="SourceAlpha" operator="arithmetic" k2="-1" k3="1" result="shadowInnerInner1"></feComposite>
            <feColorMatrix values="0 0 0 0 0.208098323   0 0 0 0 0.55677145   0 0 0 0 1  0 0 0 1 0" type="matrix" in="shadowInnerInner1"></feColorMatrix>
        </filter>
        <filter x="-68.8%" y="-35.5%" width="225.0%" height="176.3%" filterUnits="objectBoundingBox" id="filter-17">
            <feOffset dx="-1" dy="-4" in="SourceAlpha" result="shadowOffsetOuter1"></feOffset>
            <feGaussianBlur stdDeviation="1.5" in="shadowOffsetOuter1" result="shadowBlurOuter1"></feGaussianBlur>
            <feColorMatrix values="0 0 0 0 0   0 0 0 0 0   0 0 0 0 0  0 0 0 0.08 0" type="matrix" in="shadowBlurOuter1" result="shadowMatrixOuter1"></feColorMatrix>
            <feMerge>
                <feMergeNode in="shadowMatrixOuter1"></feMergeNode>
                <feMergeNode in="SourceGraphic"></feMergeNode>
            </feMerge>
        </filter>
        <filter x="-68.8%" y="-35.5%" width="225.0%" height="176.3%" filterUnits="objectBoundingBox" id="filter-18">
            <feOffset dx="-1" dy="-4" in="SourceAlpha" result="shadowOffsetOuter1"></feOffset>
            <feGaussianBlur stdDeviation="1.5" in="shadowOffsetOuter1" result="shadowBlurOuter1"></feGaussianBlur>
            <feColorMatrix values="0 0 0 0 0   0 0 0 0 0   0 0 0 0 0  0 0 0 0.08 0" type="matrix" in="shadowBlurOuter1" result="shadowMatrixOuter1"></feColorMatrix>
            <feMerge>
                <feMergeNode in="shadowMatrixOuter1"></feMergeNode>
                <feMergeNode in="SourceGraphic"></feMergeNode>
            </feMerge>
        </filter>
        <path d="M2,19.4808561 C7.08357522,16.173048 10.4394305,16.173048 12.067566,19.4808561 C13.6957014,22.7886642 11.5728867,24.4079693 5.69912198,24.3387713" id="path-19"></path>
        <filter x="-28.3%" y="-40.9%" width="156.6%" height="181.7%" filterUnits="objectBoundingBox" id="filter-20">
            <feGaussianBlur stdDeviation="1.5" in="SourceAlpha" result="shadowBlurInner1"></feGaussianBlur>
            <feOffset dx="-3" dy="-3" in="shadowBlurInner1" result="shadowOffsetInner1"></feOffset>
            <feComposite in="shadowOffsetInner1" in2="SourceAlpha" operator="arithmetic" k2="-1" k3="1" result="shadowInnerInner1"></feComposite>
            <feColorMatrix values="0 0 0 0 0.208098323   0 0 0 0 0.55677145   0 0 0 0 1  0 0 0 0.572770979 0" type="matrix" in="shadowInnerInner1"></feColorMatrix>
        </filter>
        <path d="M13,20.4808561 C18.0835752,17.173048 21.4394305,17.173048 23.067566,20.4808561 C24.6957014,23.7886642 22.5728867,25.4079693 16.699122,25.3387713" id="path-21"></path>
        <filter x="-28.3%" y="-40.9%" width="156.6%" height="181.7%" filterUnits="objectBoundingBox" id="filter-22">
            <feGaussianBlur stdDeviation="1.5" in="SourceAlpha" result="shadowBlurInner1"></feGaussianBlur>
            <feOffset dx="-3" dy="-3" in="shadowBlurInner1" result="shadowOffsetInner1"></feOffset>
            <feComposite in="shadowOffsetInner1" in2="SourceAlpha" operator="arithmetic" k2="-1" k3="1" result="shadowInnerInner1"></feComposite>
            <feColorMatrix values="0 0 0 0 0.208098323   0 0 0 0 0.55677145   0 0 0 0 1  0 0 0 0.572770979 0" type="matrix" in="shadowInnerInner1"></feColorMatrix>
        </filter>
        <path d="M10.9374536,11.3185617 C11.931155,7.01717148 13.6962453,5.32073305 16.2327246,6.22924642 C18.7692039,7.13775978 18.475148,9.05854559 15.350557,11.9916039" id="path-23"></path>
        <filter x="-14.3%" y="-16.7%" width="128.6%" height="133.3%" filterUnits="objectBoundingBox" id="filter-24">
            <feGaussianBlur stdDeviation="0.5" in="SourceAlpha" result="shadowBlurInner1"></feGaussianBlur>
            <feOffset dx="-1" dy="-1" in="shadowBlurInner1" result="shadowOffsetInner1"></feOffset>
            <feComposite in="shadowOffsetInner1" in2="SourceAlpha" operator="arithmetic" k2="-1" k3="1" result="shadowInnerInner1"></feComposite>
            <feColorMatrix values="0 0 0 0 0.208098323   0 0 0 0 0.55677145   0 0 0 0 1  0 0 0 0.572770979 0" type="matrix" in="shadowInnerInner1"></feColorMatrix>
        </filter>
        <path d="M18.9374536,12.3185617 C19.931155,8.01717148 21.6962453,6.32073305 24.2327246,7.22924642 C26.7692039,8.13775978 26.475148,10.0585456 23.350557,12.9916039" id="path-25"></path>
        <filter x="-14.3%" y="-16.7%" width="128.6%" height="133.3%" filterUnits="objectBoundingBox" id="filter-26">
            <feGaussianBlur stdDeviation="0.5" in="SourceAlpha" result="shadowBlurInner1"></feGaussianBlur>
            <feOffset dx="-1" dy="-1" in="shadowBlurInner1" result="shadowOffsetInner1"></feOffset>
            <feComposite in="shadowOffsetInner1" in2="SourceAlpha" operator="arithmetic" k2="-1" k3="1" result="shadowInnerInner1"></feComposite>
            <feColorMatrix values="0 0 0 0 0.208098323   0 0 0 0 0.55677145   0 0 0 0 1  0 0 0 0.572770979 0" type="matrix" in="shadowInnerInner1"></feColorMatrix>
        </filter>
        <path d="M21,3.55130522 C21.7097867,0.683711743 22.9705655,-0.447247205 24.7823364,0.15842837 C26.5941121,0.764103946 26.3840722,2.04462782 24.1522167,4" id="path-27"></path>
        <filter x="-20.0%" y="-25.0%" width="140.0%" height="150.0%" filterUnits="objectBoundingBox" id="filter-28">
            <feGaussianBlur stdDeviation="0.5" in="SourceAlpha" result="shadowBlurInner1"></feGaussianBlur>
            <feOffset dx="-1" dy="-1" in="shadowBlurInner1" result="shadowOffsetInner1"></feOffset>
            <feComposite in="shadowOffsetInner1" in2="SourceAlpha" operator="arithmetic" k2="-1" k3="1" result="shadowInnerInner1"></feComposite>
            <feColorMatrix values="0 0 0 0 0.208098323   0 0 0 0 0.55677145   0 0 0 0 1  0 0 0 0.572770979 0" type="matrix" in="shadowInnerInner1"></feColorMatrix>
        </filter>
        <path d="M28,3.55130522 C28.7097867,0.683711743 29.9705655,-0.447247205 31.7823364,0.15842837 C33.5941121,0.764103946 33.3840722,2.04462782 31.1522167,4" id="path-29"></path>
        <filter x="-20.0%" y="-25.0%" width="140.0%" height="150.0%" filterUnits="objectBoundingBox" id="filter-30">
            <feGaussianBlur stdDeviation="0.5" in="SourceAlpha" result="shadowBlurInner1"></feGaussianBlur>
            <feOffset dx="-1" dy="-1" in="shadowBlurInner1" result="shadowOffsetInner1"></feOffset>
            <feComposite in="shadowOffsetInner1" in2="SourceAlpha" operator="arithmetic" k2="-1" k3="1" result="shadowInnerInner1"></feComposite>
            <feColorMatrix values="0 0 0 0 0.208098323   0 0 0 0 0.55677145   0 0 0 0 1  0 0 0 0.572770979 0" type="matrix" in="shadowInnerInner1"></feColorMatrix>
        </filter>
        <path d="M25.0625464,21.4892522 C30.1461216,18.1814441 33.5019769,18.1814441 35.1301124,21.4892522 C36.7582478,24.7970604 34.6354331,26.4163655 28.7616684,26.3471675" id="path-31"></path>
        <filter x="-28.3%" y="-40.9%" width="156.6%" height="181.7%" filterUnits="objectBoundingBox" id="filter-32">
            <feGaussianBlur stdDeviation="1.5" in="SourceAlpha" result="shadowBlurInner1"></feGaussianBlur>
            <feOffset dx="-3" dy="-3" in="shadowBlurInner1" result="shadowOffsetInner1"></feOffset>
            <feComposite in="shadowOffsetInner1" in2="SourceAlpha" operator="arithmetic" k2="-1" k3="1" result="shadowInnerInner1"></feComposite>
            <feColorMatrix values="0 0 0 0 0.208098323   0 0 0 0 0.55677145   0 0 0 0 1  0 0 0 0.572770979 0" type="matrix" in="shadowInnerInner1"></feColorMatrix>
        </filter>
        <path d="M28,13.3269578 C28.9937014,9.02556761 30.7587917,7.32912919 33.295271,8.23764256 C35.8317503,9.14615592 35.5376944,11.0669417 32.4131034,14" id="path-33"></path>
        <filter x="-14.3%" y="-16.7%" width="128.6%" height="133.3%" filterUnits="objectBoundingBox" id="filter-34">
            <feGaussianBlur stdDeviation="0.5" in="SourceAlpha" result="shadowBlurInner1"></feGaussianBlur>
            <feOffset dx="-1" dy="-1" in="shadowBlurInner1" result="shadowOffsetInner1"></feOffset>
            <feComposite in="shadowOffsetInner1" in2="SourceAlpha" operator="arithmetic" k2="-1" k3="1" result="shadowInnerInner1"></feComposite>
            <feColorMatrix values="0 0 0 0 0.208098323   0 0 0 0 0.55677145   0 0 0 0 1  0 0 0 0.572770979 0" type="matrix" in="shadowInnerInner1"></feColorMatrix>
        </filter>
    </defs>
    <g id="Page-1" stroke="none" stroke-width="1" fill="none" fill-rule="evenodd">
        <g id="미니윈도우-카테고리-없음-최종">
            <g id="Group-6">
                <rect id="Rectangle" fill="#FAFAFA" x="0" y="0" width="260" height="234"></rect>
                <g id="Group-5" transform="translate(38.500000, 16.000000)">
                    <circle id="Oval" fill="#DEE2E6" cx="91.5" cy="88" r="69"></circle>
                    <g id="Group-3" transform="translate(53.510513, 35.000000)">
                        <rect id="Rectangle" fill="#FFFFFF" x="22.7374304" y="16.92" width="33.48" height="59.4"></rect>
                        <g id="Group-28" transform="translate(7.617430, 0.000000)">
                            <g id="Group-27" transform="translate(-0.000000, 0.000000)">
                                <g id="Group" transform="translate(31.500000, 47.500000) rotate(-360.000000) translate(-31.500000, -47.500000) ">
                                    <path d="M31.3260918,92.3972018 C14.0093654,92.3972018 0,80.0486826 0,62.7270782 L0,31.3635391 C0,14.0419348 14.0379804,0 31.3547068,0 C48.6714332,0 62.7094136,14.0419348 62.7094136,31.3635391 L62.7094136,62.7270782 C62.7094136,80.0486826 48.6428182,92.3972018 31.3260918,92.3972018 Z M31.2881208,74.216274 C37.0323007,74.216274 41.7125221,69.6270955 41.9132954,63.8895935 L41.9200065,63.50543 L41.9200065,31.3728978 C41.9200065,25.457462 37.1599492,20.6620538 31.2881208,20.6620538 C25.5439409,20.6620538 20.8637195,25.2512322 20.6629463,30.9887342 L20.6562351,31.3728978 L20.6562351,63.50543 C20.6562351,69.4208658 25.4162925,74.216274 31.2881208,74.216274 Z" id="Shape" fill="#FFFFFF"></path>
                                    <path d="M52.2578447,20.8899441 C57.9046033,20.8899441 62.5054481,25.3692947 62.7028163,30.9694873 L62.7094136,31.3444571 L62.7094136,62.7079962 C62.7094136,80.0296006 48.6714332,94.0715353 31.3547068,94.0715353 C14.0379804,94.0715353 0,80.0296006 0,62.7079962 L0,31.3444571 L0.00659736056,30.9694873 C0.203965492,25.3692947 4.80481033,20.8899441 10.4515689,20.8899441 C16.0983275,20.8899441 20.6991724,25.3692947 20.8965405,30.9694873 L20.9031379,31.3444571 L20.9031379,62.7079962 C20.9031379,68.4818643 25.5824647,73.1625093 31.3547068,73.1625093 C37.0014654,73.1625093 41.6023102,68.6831586 41.7996784,63.082966 L41.8062757,62.7079962 L41.8062757,31.3444571 L41.8128731,30.9694873 C42.0102412,25.3692947 46.6110861,20.8899441 52.2578447,20.8899441 Z" id="Path" fill="#358EFF"></path>
                                </g>
                            </g>
                        </g>
                        <path d="M19.1803751,85.3444493 C17.1677079,90.3670426 16.1613743,94.8555514 16.1613743,98.8099757 C16.1613743,102.7644 17.1677079,106.613669 19.1803751,110.357783 L24.8013743,110.357783 C22.7887072,107.124718 21.7823736,103.306217 21.7823736,98.9022796 C21.7823736,94.4983425 22.7887072,89.9790658 24.8013743,85.3444493 L19.1803751,85.3444493 Z" id="Path-2" fill="#358EFF"></path>
                        <g id="Group-16" transform="translate(15.431598, 103.092889)">
                            <mask id="mask-2" fill="white">
                                <use xlink:href="#path-1"></use>
                            </mask>
                            <use id="Path-2" fill="#FFFFFF" xlink:href="#path-1"></use>
                        </g>
                        <g id="Group-22" transform="translate(60.489487, 102.844449) scale(-1, 1) translate(-60.489487, -102.844449) translate(48.989487, 85.344449)">
                            <path d="M12.1720251,0 C10.1593579,5.02259329 9.15302435,9.51110209 9.15302435,13.4655264 C9.15302435,17.4199507 10.1593579,21.2692198 12.1720251,25.0133337 L17.7930244,25.0133337 C15.7803572,21.7802685 14.7740236,17.9617674 14.7740236,13.5578303 C14.7740236,9.15389322 15.7803572,4.63461645 17.7930244,0 L12.1720251,0 Z" id="Path-2" fill="#358EFF"></path>
                            <g id="Group-15" transform="translate(8.433024, 17.748440)">
                                <mask id="mask-4" fill="white">
                                    <use xlink:href="#path-3"></use>
                                </mask>
                                <use id="Path-2" fill="#FFFFFF" xlink:href="#path-3"></use>
                            </g>
                            <g id="Group-14" transform="translate(11.500000, 27.755794) rotate(1.000000) translate(-11.500000, -27.755794) translate(1.000000, 21.255794)">
                                <g id="Group-18" transform="translate(6.947391, 3.206803)">
                                    <mask id="mask-6" fill="white">
                                        <use xlink:href="#path-5"></use>
                                    </mask>
                                    <use id="Path-18" fill="#F1F6FF" xlink:href="#path-5"></use>
                                    <path d="M13.1025401,1.86530242 C12.0827672,2.03137902 9.75524561,3.71128162 9.93908862,6.64756407 C10.0616506,7.17011438 11.1834436,6.98742315 13.3044677,6.09949039 C13.8496979,3.16598068 13.7823887,1.75458469 13.1025401,1.86530242 Z" id="Path-19" fill="#77B3FF" mask="url(#mask-6)"></path>
                                </g>
                                <g id="Path-16">
                                    <use fill="#4899FF" fill-rule="evenodd" xlink:href="#path-7"></use>
                                    <use fill="black" fill-opacity="1" filter="url(#filter-8)" xlink:href="#path-7"></use>
                                </g>
                                <path d="M8.30565535,7.05239496 L10.5682838,9.8317383 C7.1360234,11.4925786 4.17495699,11.9565147 1.6850846,11.2235468 C-0.804787796,10.4905788 -0.0564865692,9.12962508 3.92998828,7.14068563 L5.66682718,7.37170628 L8.30565535,7.05239496 Z" id="Path-15" fill="#77B3FF"></path>
                                <path d="M3.92998828,7.14068563 C1.09524716,8.40880307 0.235512281,9.33185157 1.35078365,9.90983112 C2.46605502,10.4878107 4.66213502,10.4878107 7.93902365,9.90983112 L6.3223204,7.73745535 L9.81711798,7.14068563 L11.8674479,4.27642405 L11.8674479,0.927443376 C11.860061,0.862885103 11.4974591,0.797498444 10.7796421,0.7312834 C10.0618252,0.665068356 8.99783313,0.598858818 7.58766603,0.532654786 L7.93902365,4.27642405 L5.45606988,6.84281059 L3.92998828,7.14068563 Z" id="Path-14" fill="#FFFFFF"></path>
                                <path d="M6.3223204,8.0016829 C6.22612257,6.98895629 6.84790445,6.56144369 8.18766603,6.7191451 C10.1973084,6.95569722 9.64110584,5.58309514 10.302281,4.92103141 C10.9634562,4.25896769 11.0621797,4.50889236 11.487666,3.41471038 C11.7713236,2.68525572 11.5353156,1.79078006 10.7796421,0.7312834 C11.595955,0.777144159 12.1058234,0.898827475 12.3092473,1.09633335 C12.649478,1.42666601 12.7955995,3.1247225 12.7955995,3.65698508 C12.7955995,4.27567467 11.7201179,5.27822501 11.3360206,5.69366253 C10.9519234,6.10910005 10.3607925,8.68042754 8.59749495,7.96502492 C6.83419739,7.24962231 7.20924733,8.89708552 7.20924733,8.89708552 C7.20924733,8.89708552 6.91360502,8.59861798 6.3223204,8.0016829 Z" id="Path-13" fill="#77B3FF"></path>
                                <g id="Path-17">
                                    <use fill="#FFFFFF" fill-rule="evenodd" xlink:href="#path-9"></use>
                                    <use fill="black" fill-opacity="1" filter="url(#filter-10)" xlink:href="#path-9"></use>
                                </g>
                                <path d="M11.114953,7.14761101 C10.9470423,7.89784243 10.8482494,9.25202096 14.1741635,8.05618795 C16.3914395,7.25896595 18.1739119,6.32163884 19.5215805,5.24420664 L19.5215805,5.06606513 C16.5746658,6.33655568 14.7921934,7.03040431 14.1741635,7.14761101 C13.2471185,7.32342106 11.8228951,7.18572965 12.3092473,6.43385285 C12.7955995,5.68197605 11.2828638,6.39737959 11.114953,7.14761101 Z" id="Path-20" fill="#358EFF"></path>
                                <polyline id="Path-21" stroke="#358EFF" stroke-width="0.6" stroke-linejoin="bevel" points="5.40874891 6.53196428 8.3135769 7.60541035 6.54164883 5.67010867 9.69846227 6.31224329 7.55360559 4.41657629 11.4087489 4.41657629 7.48847217 3.40541035"></polyline>
                                <polygon id="Path-22" fill="#ADD1FF" points="7.93902365 0.250268385 8.08380022 2.27162568 10.1259292 2.48997439 10.1259292 0.429424286"></polygon>
                            </g>
                        </g>
                        <rect id="Rectangle" stroke="#97C5FF" stroke-width="1.44" fill="#FFFFFF" x="18.0574304" y="32.4" width="11.16" height="17.28" rx="5.58"></rect>
                        <rect id="Rectangle" fill="#495057" x="21.9894866" y="36" width="7.2" height="10.44" rx="3.6"></rect>
                        <rect id="Rectangle" stroke="#97C5FF" stroke-width="1.44" fill="#FFFFFF" x="48.7094866" y="32.4" width="11.16" height="17.28" rx="5.58"></rect>
                        <rect id="Rectangle" fill="#495057" x="48.6415427" y="36" width="7.2" height="10.44" rx="3.6"></rect>
                        <g id="Group-14" transform="translate(7.744406, 106.600244)">
                            <g id="Group-18" transform="translate(6.947391, 3.206803)">
                                <mask id="mask-12" fill="white">
                                    <use xlink:href="#path-11"></use>
                                </mask>
                                <use id="Path-18" fill="#F1F6FF" xlink:href="#path-11"></use>
                                <path d="M13.1025401,1.86530242 C12.0827672,2.03137902 9.75524561,3.71128162 9.93908862,6.64756407 C10.0616506,7.17011438 11.1834436,6.98742315 13.3044677,6.09949039 C13.8496979,3.16598068 13.7823887,1.75458469 13.1025401,1.86530242 Z" id="Path-19" fill="#77B3FF" mask="url(#mask-12)"></path>
                            </g>
                            <g id="Path-16">
                                <use fill="#4899FF" fill-rule="evenodd" xlink:href="#path-13"></use>
                                <use fill="black" fill-opacity="1" filter="url(#filter-14)" xlink:href="#path-13"></use>
                            </g>
                            <path d="M8.30565535,7.05239496 L10.5682838,9.8317383 C7.1360234,11.4925786 4.17495699,11.9565147 1.6850846,11.2235468 C-0.804787796,10.4905788 -0.0564865692,9.12962508 3.92998828,7.14068563 L5.66682718,7.37170628 L8.30565535,7.05239496 Z" id="Path-15" fill="#77B3FF"></path>
                            <path d="M3.92998828,7.14068563 C1.09524716,8.40880307 0.235512281,9.33185157 1.35078365,9.90983112 C2.46605502,10.4878107 4.66213502,10.4878107 7.93902365,9.90983112 L6.3223204,7.73745535 L9.81711798,7.14068563 L11.8674479,4.27642405 L11.8674479,0.927443376 C11.860061,0.862885103 11.4974591,0.797498444 10.7796421,0.7312834 C10.0618252,0.665068356 8.99783313,0.598858818 7.58766603,0.532654786 L7.93902365,4.27642405 L5.45606988,6.84281059 L3.92998828,7.14068563 Z" id="Path-14" fill="#FFFFFF"></path>
                            <path d="M6.3223204,8.0016829 C6.22612257,6.98895629 6.84790445,6.56144369 8.18766603,6.7191451 C10.1973084,6.95569722 9.64110584,5.58309514 10.302281,4.92103141 C10.9634562,4.25896769 11.0621797,4.50889236 11.487666,3.41471038 C11.7713236,2.68525572 11.5353156,1.79078006 10.7796421,0.7312834 C11.595955,0.777144159 12.1058234,0.898827475 12.3092473,1.09633335 C12.649478,1.42666601 12.7955995,3.1247225 12.7955995,3.65698508 C12.7955995,4.27567467 11.7201179,5.27822501 11.3360206,5.69366253 C10.9519234,6.10910005 10.3607925,8.68042754 8.59749495,7.96502492 C6.83419739,7.24962231 7.20924733,8.89708552 7.20924733,8.89708552 C7.20924733,8.89708552 6.91360502,8.59861798 6.3223204,8.0016829 Z" id="Path-13" fill="#77B3FF"></path>
                            <g id="Path-17">
                                <use fill="#FFFFFF" fill-rule="evenodd" xlink:href="#path-15"></use>
                                <use fill="black" fill-opacity="1" filter="url(#filter-16)" xlink:href="#path-15"></use>
                            </g>
                            <path d="M11.114953,7.14761101 C10.9470423,7.89784243 10.8482494,9.25202096 14.1741635,8.05618795 C16.3914395,7.25896595 18.1739119,6.32163884 19.5215805,5.24420664 L19.5215805,5.06606513 C16.5746658,6.33655568 14.7921934,7.03040431 14.1741635,7.14761101 C13.2471185,7.32342106 11.8228951,7.18572965 12.3092473,6.43385285 C12.7955995,5.68197605 11.2828638,6.39737959 11.114953,7.14761101 Z" id="Path-20" fill="#358EFF"></path>
                            <polyline id="Path-21" stroke="#358EFF" stroke-width="0.6" stroke-linejoin="bevel" points="5.40874891 6.53196428 8.3135769 7.60541035 6.54164883 5.67010867 9.69846227 6.31224329 7.55360559 4.41657629 11.4087489 4.41657629 7.48847217 3.40541035"></polyline>
                            <polygon id="Path-22" fill="#ADD1FF" points="7.93902365 0.250268385 8.08380022 2.27162568 10.1259292 2.48997439 10.1259292 0.429424286"></polygon>
                        </g>
                        <path d="M47.9894866,37.1 C49.8698906,32.82 51.9698906,30.68 54.2894866,30.68 C57.7688805,30.68 60.5894866,33.5006061 60.5894866,36.98 L60.5894866,39.1 L47.9894866,37.1 Z" id="Path" fill="#97C5FF"></path>
                        <path d="M17.9894866,37.2841758 C17.9894866,33.8047819 19.3875647,30.68 22.8669586,30.68 C26.3463525,30.68 29.1669586,33.5006061 29.1669586,36.98 L29.1669586,39.1 L17.9894866,37.2841758 Z" id="Path" fill="#97C5FF" transform="translate(23.578223, 34.890000) scale(-1, 1) translate(-23.578223, -34.890000) "></path>
                        <path d="M39.3463281,56.5407497 C40.4734031,56.5407497 44.2665268,56.5184433 44.2665268,55.3913683 C44.2665268,54.2642934 40.4734031,52.4592503 39.3463281,52.4592503 C38.2192532,52.4592503 34.2665268,54.2642934 34.2665268,55.3913683 C34.2665268,56.5184433 38.2192532,56.5407497 39.3463281,56.5407497 Z" id="Oval" fill="#FF6B6B"></path>
                        <g id="Group-2" filter="url(#filter-17)" transform="translate(0.000000, 22.000000)">
                            <path d="M10.0671465,37.0321681 C-3.35571549,32.489142 -3.35571549,24.5630158 10.0671465,13.2537895" id="Path-11" stroke="#358EFF" stroke-width="5.76"></path>
                            <path d="M16.1795214,14.9921161 C16.1795214,14.9921161 16.1795214,14.9921161 16.1795214,14.9921161 C18.963305,12.4357398 22.668112,12.0512739 21.1495297,9.92164663 C20.1371415,8.5018951 18.7916385,8.5018951 17.1130206,9.92164663 C20.2023993,6.2064629 20.8191607,3.95267005 18.963305,3.16026809 C16.1795214,1.97166515 15.5741203,5.65713886 15.5741203,5.65713886 C15.5741203,5.65713886 16.6730288,2.40578704 14.8311979,1.99386445 C12.989367,1.58194185 12.1484207,4.958411 12.0011626,4.958411 C11.8539044,4.958411 13.6525644,2.06135597 12.0011626,1.24924741 C10.3497608,0.437138857 9.13105709,1.70413038 9.13105709,3.68063462 C9.13105709,4.7547195 8.87821713,7.16715868 8.3725372,10.9179522 L8.37255496,10.9179546 C8.0270594,13.4806082 9.82442115,15.8381289 12.3870748,16.1836245 C13.7654486,16.3694561 15.1550938,15.9328583 16.1795214,14.9921161 Z" id="Path-9" fill="#FFFFFF" transform="translate(14.745975, 8.504341) scale(-1, 1) rotate(-435.000000) translate(-14.745975, -8.504341) "></path>
                        </g>
                        <g id="Group-2" filter="url(#filter-18)" transform="translate(65.989487, 41.000000) scale(-1, 1) translate(-65.989487, -41.000000) translate(53.989487, 22.000000)">
                            <path d="M10.0671465,37.0321681 C-3.35571549,32.489142 -3.35571549,24.5630158 10.0671465,13.2537895" id="Path-11" stroke="#358EFF" stroke-width="5.76"></path>
                            <path d="M16.1795214,14.9921161 C16.1795214,14.9921161 16.1795214,14.9921161 16.1795214,14.9921161 C18.963305,12.4357398 22.668112,12.0512739 21.1495297,9.92164663 C20.1371415,8.5018951 18.7916385,8.5018951 17.1130206,9.92164663 C20.2023993,6.2064629 20.8191607,3.95267005 18.963305,3.16026809 C16.1795214,1.97166515 15.5741203,5.65713886 15.5741203,5.65713886 C15.5741203,5.65713886 16.6730288,2.40578704 14.8311979,1.99386445 C12.989367,1.58194185 12.1484207,4.958411 12.0011626,4.958411 C11.8539044,4.958411 13.6525644,2.06135597 12.0011626,1.24924741 C10.3497608,0.437138857 9.13105709,1.70413038 9.13105709,3.68063462 C9.13105709,4.7547195 8.87821713,7.16715868 8.3725372,10.9179522 L8.37255496,10.9179546 C8.0270594,13.4806082 9.82442115,15.8381289 12.3870748,16.1836245 C13.7654486,16.3694561 15.1550938,15.9328583 16.1795214,14.9921161 Z" id="Path-9" fill="#FFFFFF" transform="translate(14.745975, 8.504341) scale(-1, 1) rotate(-435.000000) translate(-14.745975, -8.504341) "></path>
                        </g>
                    </g>
                    <g id="Group-4" transform="translate(76.562546, 0.000000)" opacity="0.400000006">
                        <g id="Path-10" transform="translate(7.298798, 20.670449) rotate(-44.000000) translate(-7.298798, -20.670449) ">
                            <use fill="#78B3FF" fill-rule="evenodd" xlink:href="#path-19"></use>
                            <use fill="black" fill-opacity="1" filter="url(#filter-20)" xlink:href="#path-19"></use>
                        </g>
                        <g id="Path-10" transform="translate(18.298798, 21.670449) rotate(-44.000000) translate(-18.298798, -21.670449) ">
                            <use fill="#78B3FF" fill-rule="evenodd" xlink:href="#path-21"></use>
                            <use fill="black" fill-opacity="1" filter="url(#filter-22)" xlink:href="#path-21"></use>
                        </g>
                        <g id="Path-10">
                            <use fill="#78B3FF" fill-rule="evenodd" xlink:href="#path-23"></use>
                            <use fill="black" fill-opacity="1" filter="url(#filter-24)" xlink:href="#path-23"></use>
                        </g>
                        <g id="Path-10">
                            <use fill="#78B3FF" fill-rule="evenodd" xlink:href="#path-25"></use>
                            <use fill="black" fill-opacity="1" filter="url(#filter-26)" xlink:href="#path-25"></use>
                        </g>
                        <g id="Path-10">
                            <use fill="#78B3FF" fill-rule="evenodd" xlink:href="#path-27"></use>
                            <use fill="black" fill-opacity="1" filter="url(#filter-28)" xlink:href="#path-27"></use>
                        </g>
                        <g id="Path-10-Copy">
                            <use fill="#78B3FF" fill-rule="evenodd" xlink:href="#path-29"></use>
                            <use fill="black" fill-opacity="1" filter="url(#filter-30)" xlink:href="#path-29"></use>
                        </g>
                        <g id="Path-10" transform="translate(30.361345, 22.678845) rotate(-44.000000) translate(-30.361345, -22.678845) ">
                            <use fill="#78B3FF" fill-rule="evenodd" xlink:href="#path-31"></use>
                            <use fill="black" fill-opacity="1" filter="url(#filter-32)" xlink:href="#path-31"></use>
                        </g>
                        <g id="Path-10">
                            <use fill="#78B3FF" fill-rule="evenodd" xlink:href="#path-33"></use>
                            <use fill="black" fill-opacity="1" filter="url(#filter-34)" xlink:href="#path-33"></use>
                        </g>
                    </g>
                    <text id="카테고리가-없어요…-유어링크에서-카테" font-family="SpoqaHanSans-Regular, SpoqaHanSans" font-size="12" font-weight="normal" letter-spacing="-0.757143" fill="#868E96">
                        <tspan x="43.781715" y="183">카테고리가 없어요…</tspan>
                        <tspan x="0.60543" y="201">유어링크에서 카테고리를 생성해주세요!</tspan>
                    </text>
                    <line x1="88.7770403" y1="46.3006573" x2="97.2733737" y2="46.3006573" id="Path-12" stroke="#E6E6E6" stroke-width="2" stroke-linecap="round"></line>
                    <line x1="86" y1="50.5" x2="100.273374" y2="50.3006573" id="Path-12" stroke="#E6E6E6" stroke-width="2" stroke-linecap="round"></line>
                    <line x1="83" y1="54.5" x2="102.273374" y2="54.3006573" id="Path-12" stroke="#E6E6E6" stroke-width="2" stroke-linecap="round"></line>
                </g>
            </g>
        </g>
    </g>
</svg>