<?xml version="1.0" encoding="UTF-8"?>
<svg width="137px" height="215px" viewBox="0 0 137 215" version="1.1" xmlns="http://www.w3.org/2000/svg" xmlns:xlink="http://www.w3.org/1999/xlink">
    <title>97D899CC-390B-46A7-8240-5FE0CE6D39AA</title>
    <defs>
        <rect id="path-1" x="33" y="0" width="35" height="170" rx="7"></rect>
        <mask id="mask-2" maskContentUnits="userSpaceOnUse" maskUnits="objectBoundingBox" x="0" y="0" width="35" height="170" fill="white">
            <use xlink:href="#path-1"></use>
        </mask>
        <rect id="path-3" x="0" y="0" width="99" height="170" rx="7"></rect>
        <rect id="path-5" x="0" y="0" width="70.4" height="109.6"></rect>
        <path d="M0.474600669,1.52085181 L0.877190083,2.78750497 L0.877190083,2.78750497 L2.27594081,6.54532104 L7.88885999,6.51768891 L6.49010925,2.78750497 L5.86793078,0.810367254 C5.71630817,0.328546055 5.26849368,0.00169559007 4.76338488,0.0041822163 L1.56680928,0.0199188036 C0.930584956,0.0230509052 0.417362308,0.541351694 0.42049441,1.17757602 C0.421067948,1.29407892 0.439310886,1.40982079 0.474600669,1.52085181 Z" id="path-7"></path>
        <path d="M9.08094309,6.60804744e-14 C10.1226971,1.52722084 10.6435741,2.88789678 10.6435741,4.08202782 C10.6435741,5.27615887 7.09571609,6.07727113 -1.70530257e-15,6.48536461 L2.54283079,0.472226117 L9.08094309,6.60804744e-14 Z" id="path-9"></path>
        <path d="M9.49395833,3.42113924 C12.6779805,4.38269112 14.4647301,4.25486751 14.8542074,3.03766841 C15.2436846,1.82046932 14.7133551,0.807913182 13.2632189,6.60804744e-14 C12.1285608,0.474788693 10.9899538,0.973052502 9.84739787,1.49479143 C8.70484193,2.01653035 8.58702875,2.65864629 9.49395833,3.42113924 Z" id="path-11"></path>
        <filter x="-8.2%" y="-12.3%" width="116.4%" height="124.6%" filterUnits="objectBoundingBox" id="filter-12">
            <feOffset dx="0" dy="-1" in="SourceAlpha" result="shadowOffsetInner1"></feOffset>
            <feComposite in="shadowOffsetInner1" in2="SourceAlpha" operator="arithmetic" k2="-1" k3="1" result="shadowInnerInner1"></feComposite>
            <feColorMatrix values="0 0 0 0 0.128544777   0 0 0 0 0.36223862   0 0 0 0 0.659307065  0 0 0 0.360494974 0" type="matrix" in="shadowInnerInner1"></feColorMatrix>
        </filter>
        <path d="M0.199371172,7.94659224 C-0.0664570574,8.79981085 -0.0664570574,9.40350291 0.199371172,9.75766841 C0.598113516,10.2889167 2.75012409,10.8261651 8.2661713,9.75766841 C11.5975364,9.75766841 14.2426415,9.26332982 16.2014867,8.27465263 L16.2014867,6.64747012 C12.68407,7.91379971 10.1017835,8.32611457 8.45462708,7.8844147 C4.15427988,9.20945463 1.40252791,9.23018048 0.199371172,7.94659224 Z" id="path-13"></path>
        <filter x="-3.1%" y="-13.4%" width="106.2%" height="126.8%" filterUnits="objectBoundingBox" id="filter-14">
            <feOffset dx="0" dy="-1" in="SourceAlpha" result="shadowOffsetInner1"></feOffset>
            <feComposite in="shadowOffsetInner1" in2="SourceAlpha" operator="arithmetic" k2="-1" k3="1" result="shadowInnerInner1"></feComposite>
            <feColorMatrix values="0 0 0 0 0.208098323   0 0 0 0 0.55677145   0 0 0 0 1  0 0 0 1 0" type="matrix" in="shadowInnerInner1"></feColorMatrix>
        </filter>
    </defs>
    <g id="Page-1" stroke="none" stroke-width="1" fill="none" fill-rule="evenodd">
        <g id="방문기록-페이지-디폴트-이미지" transform="translate(-915.000000, -72.000000)">
            <g id="Group-19" transform="translate(915.000000, 72.000000)">
                <use id="Rectangle" stroke="#CED4DA" mask="url(#mask-2)" stroke-width="2" fill="#DEE2E6" stroke-dasharray="3.2" xlink:href="#path-1"></use>
                <g id="Group-17">
                    <text id="방문기록이-없어요-:(" font-family="SpoqaHanSans-Bold, SpoqaHanSans" font-size="16" font-weight="bold" line-spacing="32" fill="#868E96">
                        <tspan x="0.364" y="202">방문기록이 없어요 :(</tspan>
                    </text>
                    <g id="Group-10" transform="translate(33.000000, 0.000000)">
                        <mask id="mask-4" fill="white">
                            <use xlink:href="#path-3"></use>
                        </mask>
                        <g id="Rectangle"></g>
                        <ellipse id="Oval" fill="#B3C0CF" mask="url(#mask-4)" cx="39.5" cy="165.8" rx="49.5" ry="4.85428177"></ellipse>
                    </g>
                </g>
                <g id="Group-5" transform="translate(33.000000, 60.000000)">
                    <mask id="mask-6" fill="white">
                        <use xlink:href="#path-5"></use>
                    </mask>
                    <g id="Rectangle"></g>
                    <g id="Group-4" mask="url(#mask-6)">
                        <g transform="translate(27.141301, 60.205437) rotate(-345.000000) translate(-27.141301, -60.205437) translate(-11.358699, 11.205437)">
                            <g id="Group-21" stroke="none" stroke-width="1" fill-rule="evenodd">
                                <rect id="Rectangle" fill="#FFFFFF" x="25.3983551" y="13.536" width="26.784" height="47.52"></rect>
                                <g id="Group-28" transform="translate(13.302355, 0.000000)">
                                    <g id="Group-27" transform="translate(-0.000000, 0.000000)">
                                        <g id="Group" transform="translate(25.500000, 38.000000) rotate(-360.000000) translate(-25.500000, -38.000000) ">
                                            <path d="M25.0608735,73.9177614 C11.2074924,73.9177614 0,64.0389461 0,50.1816626 L0,25.0908313 C0,11.2335478 11.2303843,0 25.0837654,0 C38.9371466,0 50.1675309,11.2335478 50.1675309,25.0908313 L50.1675309,50.1816626 C50.1675309,64.0389461 38.9142546,73.9177614 25.0608735,73.9177614 Z M25.0304967,59.3730192 C29.6258406,59.3730192 33.3700177,55.7016764 33.5306363,51.1116748 L33.5360052,50.804344 L33.5360052,25.0983182 C33.5360052,20.3659696 29.7279593,16.529643 25.0304967,16.529643 C20.4351527,16.529643 16.6909756,20.2009858 16.530357,24.7909874 L16.5249881,25.0983182 L16.5249881,50.804344 C16.5249881,55.5366926 20.333034,59.3730192 25.0304967,59.3730192 Z" id="Shape" fill="#FFFFFF"></path>
                                            <path d="M41.8062757,16.7119553 C46.3236826,16.7119553 50.0043585,20.2954358 50.162253,24.7755898 L50.1675309,25.0755657 L50.1675309,50.166397 C50.1675309,64.0236805 38.9371466,75.2572283 25.0837654,75.2572283 C11.2303843,75.2572283 0,64.0236805 0,50.166397 L0,25.0755657 L0.00527788844,24.7755898 C0.163172394,20.2954358 3.84384826,16.7119553 8.36125515,16.7119553 C12.878662,16.7119553 16.5593379,20.2954358 16.7172324,24.7755898 L16.7225103,25.0755657 L16.7225103,50.166397 C16.7225103,54.7854915 20.4659717,58.5300074 25.0837654,58.5300074 C29.6011723,58.5300074 33.2818482,54.9465269 33.4397427,50.4663728 L33.4450206,50.166397 L33.4450206,25.0755657 L33.4502985,24.7755898 C33.608193,20.2954358 37.2888689,16.7119553 41.8062757,16.7119553 Z" id="Path" fill="#358EFF"></path>
                                        </g>
                                    </g>
                                </g>
                                <g id="Group-23" transform="translate(10.518355, 67.475559)" fill="#358EFF" stroke="#358EFF" stroke-width="0.5">
                                    <path d="M8.66918556,0.628718588 C6.99196292,4.64679322 6.15335161,8.23760026 6.15335161,11.4011397 C6.15335161,14.5646792 6.99196292,17.6440944 8.66918556,20.6393855 L13.3533516,20.6393855 C11.676129,18.0529334 10.8375177,14.9981325 10.8375177,11.4749828 C10.8375177,7.95183316 11.676129,4.33641174 13.3533516,0.628718588 L8.66918556,0.628718588 Z" id="Path-2" transform="translate(9.753352, 10.634052) scale(-1, 1) rotate(-39.000000) translate(-9.753352, -10.634052) "></path>
                                </g>
                                <g id="Group-22" transform="translate(56.794583, 80.454325) scale(-1, 1) rotate(23.000000) translate(-56.794583, -80.454325) translate(47.794583, 65.954325)">
                                    <path d="M9.42320059,0 C7.81306686,4.01807463 7.008,7.60888167 7.008,10.7724211 C7.008,13.9359606 7.81306686,17.0153759 9.42320059,20.0106669 L13.92,20.0106669 C12.3098663,17.4242148 11.5047994,14.3694139 11.5047994,10.8462643 C11.5047994,7.32311458 12.3098663,3.70769316 13.92,0 L9.42320059,0 Z" id="Path-2" stroke="#358EFF" stroke-width="0.5" fill="#358EFF"></path>
                                    <g id="Group-15" transform="translate(6.432000, 14.198752)">
                                        <mask id="mask-8" fill="white">
                                            <use xlink:href="#path-7"></use>
                                        </mask>
                                        <use id="Path-2" fill="#FFFFFF" xlink:href="#path-7"></use>
                                        <path d="M0.294913906,1.92450247 C2.04814512,1.96122607 4.12814512,1.91313275 6.53491391,1.7802225" id="Path-3" stroke="#979797" stroke-width="0.5" mask="url(#mask-8)"></path>
                                        <path d="M0.774913906,2.98386624 C2.52814512,3.02058984 4.60814512,2.97249652 7.01491391,2.83958627" id="Path-3" stroke="#979797" stroke-width="0.5" mask="url(#mask-8)"></path>
                                    </g>
                                    <g id="Group-14" transform="translate(8.987617, 22.660817) rotate(-2.000000) translate(-8.987617, -22.660817) translate(0.487617, 17.160817)">
                                        <g id="Group-18" transform="translate(5.557913, 2.565442)">
                                            <mask id="mask-10" fill="white">
                                                <use xlink:href="#path-9"></use>
                                            </mask>
                                            <use id="Path-18" fill="#F1F6FF" xlink:href="#path-9"></use>
                                            <path d="M10.4820321,1.49224194 C9.66621373,1.62510321 7.80419649,2.9690253 7.9512709,5.31805126 C8.0493205,5.7360915 8.94675491,5.58993852 10.6435741,4.87959231 C11.0797583,2.53278454 11.025911,1.40366775 10.4820321,1.49224194 Z" id="Path-19" fill="#77B3FF" mask="url(#mask-10)"></path>
                                        </g>
                                        <g id="Path-16">
                                            <use fill="#4899FF" fill-rule="evenodd" xlink:href="#path-11"></use>
                                            <use fill="black" fill-opacity="1" filter="url(#filter-12)" xlink:href="#path-11"></use>
                                        </g>
                                        <path d="M6.64452428,5.64191597 L8.45462708,7.86539064 C5.70881872,9.19406287 3.33996559,9.5652118 1.34806768,8.97883742 C-0.643830237,8.39246304 -0.0451892554,7.30370007 3.14399062,5.71254851 L4.53346174,5.89736502 L6.64452428,5.64191597 Z" id="Path-15" fill="#77B3FF"></path>
                                        <path d="M3.14399062,5.71254851 C0.876197725,6.72704246 0.188409825,7.46548126 1.08062692,7.9278649 C1.97284401,8.39024854 3.72970801,8.39024854 6.35121892,7.9278649 L5.05785632,6.18996428 L7.85369438,5.71254851 L9.49395833,3.42113924 L9.49395833,0.741954701 C9.48804881,0.690308082 9.19796727,0.637998755 8.6237137,0.58502672 C8.04946013,0.532054685 7.19826651,0.479087055 6.07013283,0.426123829 L6.35121892,3.42113924 L4.3648559,5.47424847 L3.14399062,5.71254851 Z" id="Path-14" fill="#FFFFFF"></path>
                                        <path d="M5.05785632,6.40134632 C4.98089806,5.59116503 5.47832026,5.24915495 6.55012293,5.37531608 C8.15784672,5.56455777 7.71288467,4.46647611 8.24182483,3.93682513 C8.77076499,3.40717415 8.84974373,3.60711389 9.19013283,2.7317683 C9.41705889,2.14820458 9.22825252,1.43262405 8.6237137,0.58502672 C9.27676403,0.621715327 9.68465876,0.71906198 9.84739787,0.877066679 C10.1195824,1.14133281 10.2364796,2.499778 10.2364796,2.92558806 C10.2364796,3.42053974 9.37609434,4.22258001 9.06881652,4.55493002 C8.76153869,4.88728004 8.28863402,6.94434203 6.87799596,6.37201994 C5.46735791,5.79969784 5.76739787,7.11766841 5.76739787,7.11766841 C5.76739787,7.11766841 5.53088402,6.87889438 5.05785632,6.40134632 Z" id="Path-13" fill="#77B3FF"></path>
                                        <g id="Path-17">
                                            <use fill="#FFFFFF" fill-rule="evenodd" xlink:href="#path-13"></use>
                                            <use fill="black" fill-opacity="1" filter="url(#filter-14)" xlink:href="#path-13"></use>
                                        </g>
                                        <path d="M8.89196242,5.71808881 C8.7576338,6.31827395 8.6785995,7.40161676 11.3393308,6.44495036 C13.1131516,5.80717276 14.5391295,5.05731108 15.6172644,4.19536531 L15.6172644,4.0528521 C13.2597326,5.06924455 11.8337547,5.62432345 11.3393308,5.71808881 C10.5976948,5.85873685 9.45831611,5.74858372 9.84739787,5.14708228 C10.2364796,4.54558084 9.02629104,5.11790367 8.89196242,5.71808881 Z" id="Path-20" fill="#358EFF"></path>
                                        <polyline id="Path-21" stroke="#358EFF" stroke-width="0.5" stroke-linejoin="bevel" points="4.32699912 5.22557143 6.65086152 6.08432828 5.23331906 4.53608694 7.75876981 5.04979463 6.04288447 3.53326103 9.12699912 3.53326103 5.99077773 2.72432828"></polyline>
                                        <polygon id="Path-22" fill="#ADD1FF" points="6.35121892 0.200214708 6.46704017 1.81730054 8.10074334 1.99197951 8.10074334 0.343539429"></polygon>
                                    </g>
                                </g>
                                <rect id="Rectangle" stroke="#97C5FF" stroke-width="1.152" fill="#FFFFFF" x="21.6543551" y="25.92" width="8.928" height="13.824" rx="4.464"></rect>
                                <rect id="Rectangle" fill="#495057" x="21.9423551" y="27.36" width="5.76" height="8.352" rx="2.88"></rect>
                                <rect id="Rectangle" stroke="#97C5FF" stroke-width="1.152" fill="#FFFFFF" x="44.4063551" y="25.92" width="8.928" height="13.824" rx="4.464"></rect>
                                <rect id="Rectangle" fill="#495057" x="44.4063551" y="27.36" width="5.76" height="8.352" rx="2.88"></rect>
                                <path d="M14.9710548,49.9262985 C4.44112587,51.12191 0.62627707,47.0619081 3.52650837,37.7462928" id="Path-8" stroke="#358EFF" stroke-width="4.608"></path>
                                <path d="M6.5520279,39.0039818 C6.5520279,39.0039818 6.5520279,39.0039818 6.5520279,39.0039818 C8.77905477,36.9588807 11.7429004,36.6513081 10.5280345,34.9476062 C9.71812398,33.811805 8.64172155,33.811805 7.29882724,34.9476062 C9.77033017,31.9754592 10.2637393,30.172425 8.77905477,29.5385034 C6.5520279,28.587621 6.0575698,31.5969379 5.9561442,31.5969379 C5.85471861,31.5969379 7.05196008,29.0378962 5.58308987,28.573722 C4.11421966,28.1095478 3.30841129,30.9770177 3.20934081,30.9770177 C3.11027033,30.9770177 4.53046225,28.6593737 3.20934081,28.0096868 C1.88821937,27.36 0.913256427,28.3735932 0.913256427,29.9547966 C0.913256427,30.8140657 0.710983886,32.7440213 0.306438805,35.7446633 L0.306488659,35.7446701 C0.0300936014,37.7947818 1.46797509,39.6807883 3.51808686,39.9571833 C4.62077998,40.1058479 5.7324902,39.7565715 6.5520279,39.0039818 Z" id="Path-9" fill="#FFFFFF"></path>
                                <path d="M4.51077723,34.3927894 C6.02182831,34.3927894 7.06349999,34.5040794 7.06349999,33.7087894 C7.06349999,32.9134993 5.83855106,32.2687894 4.32749999,32.2687894 C2.81644891,32.2687894 1.59149999,32.9134993 1.59149999,33.7087894 C1.59149999,34.5040794 2.99972616,34.3927894 4.51077723,34.3927894 Z" id="Oval" fill="#97C5FF" opacity="0.5" transform="translate(4.327500, 33.333450) rotate(15.000000) translate(-4.327500, -33.333450) "></path>
                                <g id="Group-11" transform="translate(68.586355, 40.012000) scale(-1, 1) translate(-68.586355, -40.012000) translate(61.086355, 28.512000)">
                                    <path d="M14.9710548,22.1160096 C4.44112587,23.3116211 0.62627707,19.2516192 3.52650837,9.93600386" id="Path-8" stroke="#358EFF" stroke-width="4.608"></path>
                                    <path d="M6.5520279,11.1936929 C6.5520279,11.1936929 6.5520279,11.1936929 6.5520279,11.1936929 C8.77905477,9.14859181 11.7429004,8.84101914 10.5280345,7.1373173 C9.71812398,6.00151608 8.64172155,6.00151608 7.29882724,7.1373173 C9.77033017,4.16517032 10.2637393,2.36213604 8.77905477,1.72821447 C6.5520279,0.777332121 6.067707,3.72571109 6.067707,3.72571109 C6.067707,3.72571109 6.94683381,1.12462963 5.4733691,0.795091558 C3.99990438,0.465553482 3.32714735,3.1667288 3.20934081,3.1667288 C3.09153427,3.1667288 4.53046225,0.849084773 3.20934081,0.199397929 C1.88821937,-0.450288915 0.913256427,0.563304305 0.913256427,2.1445077 C0.913256427,3.00377681 0.710983886,4.93373239 0.306438805,7.93437443 L0.306488659,7.93438115 C0.0300936014,9.98449292 1.46797509,11.8704993 3.51808686,12.1468944 C4.62077998,12.2955589 5.7324902,11.9462826 6.5520279,11.1936929 Z" id="Path-9" fill="#FFFFFF"></path>
                                    <path d="M4.51077723,6.58250046 C6.02182831,6.58250046 7.06349999,6.6937905 7.06349999,5.89850046 C7.06349999,5.10321042 5.83855106,4.45850046 4.32749999,4.45850046 C2.81644891,4.45850046 1.59149999,5.10321042 1.59149999,5.89850046 C1.59149999,6.6937905 2.99972616,6.58250046 4.51077723,6.58250046 Z" id="Oval" fill="#97C5FF" opacity="0.5" transform="translate(4.327500, 5.523161) rotate(15.000000) translate(-4.327500, -5.523161) "></path>
                                </g>
                            </g>
                            <path d="M33.2341237,40.5189455 C35.8898192,41.8995733 39.0378963,41.8995733 42.6783551,40.5189455" id="Path-4" stroke="#FF6B6B" stroke-width="1.92" stroke-linecap="round"></path>
                        </g>
                    </g>
                </g>
            </g>
        </g>
    </g>
</svg>