<?xml version="1.0" encoding="UTF-8"?>
<svg width="20px" height="20px" viewBox="0 0 20 20" version="1.1" xmlns="http://www.w3.org/2000/svg" xmlns:xlink="http://www.w3.org/1999/xlink">
    <title>0B1E0C84-7092-46D1-8124-03EE6DE9E09F</title>
    <defs>
        <linearGradient x1="50%" y1="0%" x2="50%" y2="100%" id="linearGradient-1">
            <stop stop-color="#FFFFFF" offset="0%"></stop>
            <stop stop-color="#F6F7F9" offset="100%"></stop>
        </linearGradient>
        <ellipse id="path-2" cx="8.12" cy="8.27272727" rx="8.12" ry="8.27272727"></ellipse>
        <filter x="-12.3%" y="-6.0%" width="124.6%" height="124.2%" filterUnits="objectBoundingBox" id="filter-3">
            <feOffset dx="0" dy="1" in="SourceAlpha" result="shadowOffsetOuter1"></feOffset>
            <feGaussianBlur stdDeviation="0.5" in="shadowOffsetOuter1" result="shadowBlurOuter1"></feGaussianBlur>
            <feColorMatrix values="0 0 0 0 0   0 0 0 0 0   0 0 0 0 0  0 0 0 0.25 0" type="matrix" in="shadowBlurOuter1"></feColorMatrix>
        </filter>
        <rect id="path-4" x="0" y="0" width="13.92" height="14.1818182"></rect>
    </defs>
    <g id="Page-1" stroke="none" stroke-width="1" fill="none" fill-rule="evenodd">
        <g id="컴포넌트-통합" transform="translate(-890.000000, -213.000000)">
            <g id="Group-5" transform="translate(501.000000, 206.000000)">
                <g id="button/small/link" transform="translate(390.240000, 7.727273)">
                    <g id="Group">
                        <g id="Oval">
                            <use fill="black" fill-opacity="1" filter="url(#filter-3)" xlink:href="#path-2"></use>
                            <use fill="url(#linearGradient-1)" fill-rule="evenodd" xlink:href="#path-2"></use>
                        </g>
                        <g id="icon/link" transform="translate(1.160000, 1.181818)">
                            <mask id="mask-5" fill="white">
                                <use xlink:href="#path-4"></use>
                            </mask>
                            <g id="Background"></g>
                            <path d="M6.89618762,9.24328288 C7.09137563,9.98792451 6.82791531,10.382021 6.25451431,10.9662083 L5.47994611,11.755347 C4.6243817,12.6270055 3.23723772,12.6270055 2.38167331,11.755347 C1.5261089,10.8836885 1.5261089,9.47045076 2.38167331,8.59879222 L3.15624151,7.80965353 C3.7296273,7.2254817 4.23173961,6.95707593 4.96261726,7.15590963" id="Path" stroke="#212529" stroke-width="1.152" stroke-linecap="round" mask="url(#mask-5)"></path>
                            <path d="M12.1736117,3.92510107 C12.3687997,4.6697427 12.1053394,5.06383918 11.5319384,5.64802649 L10.7573702,6.43716519 C9.9018058,7.30882372 8.51466182,7.30882372 7.65909741,6.43716519 C6.803533,5.56550666 6.803533,4.15226894 7.65909741,3.28061041 L8.43366561,2.49147171 C9.00705141,1.90729989 9.50916371,1.63889412 10.2400414,1.83772781" id="Path" stroke="#212529" stroke-width="1.152" stroke-linecap="round" mask="url(#mask-5)" transform="translate(9.627424, 4.431818) rotate(-180.000000) translate(-9.627424, -4.431818) "></path>
                            <path d="" id="Rectangle" stroke="#212529" stroke-width="0.576" mask="url(#mask-5)" transform="translate(6.960000, 7.090909) rotate(-45.000000) translate(-6.960000, -7.090909) "></path>
                        </g>
                    </g>
                </g>
            </g>
        </g>
    </g>
</svg>