<?xml version="1.0" encoding="UTF-8"?>
<svg width="14px" height="14px" viewBox="0 0 14 14" version="1.1" xmlns="http://www.w3.org/2000/svg" xmlns:xlink="http://www.w3.org/1999/xlink">
    <title>24E531E5-BEE1-47B4-BC31-FB2216B211EE</title>
    <defs>
        <rect id="path-1" x="0" y="0" width="13.8" height="13.8"></rect>
    </defs>
    <g id="Page-1" stroke="none" stroke-width="1" fill="none" fill-rule="evenodd">
        <g id="컴포넌트-통합" transform="translate(-64.000000, -1291.000000)">
            <g id="Group-8" transform="translate(60.000000, 1286.000000)">
                <g id="icon/search" transform="translate(4.000000, 5.000000)">
                    <mask id="mask-2" fill="white">
                        <use xlink:href="#path-1"></use>
                    </mask>
                    <g id="Background"></g>
                    <path d="M5.74358974,1.14871795 C8.28126736,1.14871795 10.3384615,3.20591212 10.3384615,5.74358974 C10.3384615,8.28126736 8.28126736,10.3384615 5.74358974,10.3384615 C3.20591212,10.3384615 1.14871795,8.28126736 1.14871795,5.74358974 C1.14871795,3.20591212 3.20591212,1.14871795 5.74358974,1.14871795 Z M5.74358974,2.52717949 C3.96721541,2.52717949 2.52717949,3.96721541 2.52717949,5.74358974 C2.52717949,7.51996408 3.96721541,8.96 5.74358974,8.96 C7.51996408,8.96 8.96,7.51996408 8.96,5.74358974 C8.96,3.96721541 7.51996408,2.52717949 5.74358974,2.52717949 Z" id="Oval" fill="#868E96" fill-rule="nonzero" mask="url(#mask-2)"></path>
                    <path d="M10.4711488,7.18057951 C10.8225038,7.1839338 11.1099642,7.44959544 11.1492786,7.78982624 L11.1538309,7.8763288 L11.1045587,13.086378 C11.1009589,13.4670126 10.7894755,13.7726598 10.4088408,13.7690916 C10.0574858,13.7657373 9.7700254,13.5000756 9.73071102,13.1598448 L9.72615876,13.0733423 L9.77543098,7.86329307 C9.77903069,7.48265844 10.0905142,7.17701126 10.4711488,7.18057951 Z" id="Path" fill="#868E96" fill-rule="nonzero" mask="url(#mask-2)" transform="translate(10.439995, 10.474836) rotate(-45.000000) translate(-10.439995, -10.474836) "></path>
                </g>
            </g>
        </g>
    </g>
</svg>