<svg xmlns="http://www.w3.org/2000/svg" xmlns:xlink="http://www.w3.org/1999/xlink" width="95" height="22" viewBox="0 0 95 22">
    <defs>
        <path id="prefix__c" d="M0 0.101L14.514 0.101 14.514 16.124 0 16.124z"/>
        <path id="prefix__e" d="M0.096 18.886L73.942 18.886 73.942 0 0.096 0z"/>
        <filter id="prefix__a" width="178.7%" height="178.7%" x="-39.3%" y="-31.5%" filterUnits="objectBoundingBox">
            <feOffset dy="1" in="SourceAlpha" result="shadowOffsetOuter1"/>
            <feGaussianBlur in="shadowOffsetOuter1" result="shadowBlurOuter1" stdDeviation="1.5"/>
            <feColorMatrix in="shadowBlurOuter1" values="0 0 0 0 0 0 0 0 0 0 0 0 0 0 0 0 0 0 0.5 0"/>
        </filter>
        <rect id="prefix__b" width="12.708" height="12.708" x="0" y="0" rx="1.106"/>
    </defs>
    <g fill="none" fill-rule="evenodd">
        <g transform="translate(3) translate(0 5)">
            <use fill="#000" filter="url(#prefix__a)" xlink:href="#prefix__b"/>
            <use fill="#191D20" xlink:href="#prefix__b"/>
            <g>
                <g>
                    <path fill="#FFF" d="M3.367 9.93C1.506 9.93 0 8.603 0 6.742V3.37C0 1.509 1.509 0 3.37 0c1.86 0 3.37 1.51 3.37 3.37v3.372c0 1.861-1.512 3.188-3.373 3.188zm-.004-1.954c.617 0 1.12-.493 1.142-1.11V3.372c0-.636-.511-1.151-1.142-1.151-.618 0-1.12.493-1.142 1.11l-.001.04v3.454c0 .636.512 1.151 1.143 1.151z" transform="translate(2.824 1.155) translate(.023)"/>
                    <path fill="#2083FF" d="M5.616 2.245c.607 0 1.102.482 1.123 1.083V6.74c0 1.862-1.508 3.371-3.37 3.371C1.51 10.11 0 8.601 0 6.74V3.328c.022-.602.516-1.084 1.123-1.084s1.102.482 1.123 1.083V6.74c0 .621.503 1.124 1.124 1.124.607 0 1.101-.481 1.122-1.083l.001-.04V3.328c.022-.602.516-1.084 1.123-1.084z" transform="translate(2.824 1.155) translate(.023)"/>
                </g>
            </g>
        </g>
        <g transform="translate(3) translate(18)">
            <g transform="translate(.096 2.824)">
                <mask id="prefix__d" fill="#fff">
                    <use xlink:href="#prefix__c"/>
                </mask>
                <path fill="#212529" d="M10.474 15.731v-2.176h-.09c-.538.906-1.237 1.562-2.094 1.965-.858.402-1.736.604-2.634.604-1.137 0-2.07-.151-2.798-.453-.729-.303-1.302-.73-1.72-1.285-.42-.554-.714-1.23-.884-2.026C.084 11.565 0 10.683 0 9.715V.101h4.25V8.93c0 1.29.199 2.252.598 2.887.399.635 1.107.952 2.125.952 1.156 0 1.995-.347 2.513-1.043.52-.695.779-1.838.779-3.43V.1h4.25v15.63h-4.04z" mask="url(#prefix__d)"/>
            </g>
            <path fill="#212529" d="M20.287 3.067v2.872h.06c.2-.479.47-.922.81-1.332.34-.408.731-.757 1.171-1.047.44-.289.911-.513 1.412-.673.5-.16 1.02-.24 1.561-.24.28 0 .59.05.93.15v3.95c-.2-.04-.44-.076-.72-.106-.28-.03-.55-.044-.81-.044-.781 0-1.442.13-1.982.388-.54.26-.976.614-1.306 1.062-.33.45-.566.973-.706 1.571s-.21 1.247-.21 1.944v6.97h-4.264V3.068h4.054z"/>
            <path fill="#2083FF" d="M31.429 0L31.429 15.251 40.615 15.251 40.615 18.709 27.284 18.709 27.284 0z"/>
            <mask id="prefix__f" fill="#fff">
                <use xlink:href="#prefix__e"/>
            </mask>
            <path fill="#2083FF" d="M41.843 18.71h3.508V5.161h-3.508V18.71zm0-15.644h3.508V0h-3.508v3.066zM50.27 5.133v1.891h.078c.469-.788 1.076-1.36 1.823-1.72.746-.359 1.51-.538 2.29-.538.99 0 1.802.135 2.436.407.633.271 1.133.647 1.497 1.129.365.482.62 1.068.768 1.76.148.691.222 1.457.222 2.297v8.35h-3.698v-7.667c0-1.12-.174-1.957-.521-2.508-.347-.551-.963-.827-1.849-.827-1.007 0-1.736.301-2.187.906-.452.604-.677 1.597-.677 2.98v7.116h-3.698V5.133h3.516zM64.316 0L64.316 10.036 68.985 5.162 73.369 5.162 68.281 10.141 73.942 18.709 69.455 18.709 65.75 12.656 64.316 14.045 64.316 18.709 60.612 18.709 60.612 0z" mask="url(#prefix__f)"/>
        </g>
    </g>
</svg>
