<svg xmlns="http://www.w3.org/2000/svg" xmlns:xlink="http://www.w3.org/1999/xlink" width="24" height="24" viewBox="0 0 24 24">
    <defs>
        <path id="prefix__a" d="M0 0H24V24H0z"/>
    </defs>
    <g fill="none" fill-rule="evenodd">
        <mask id="prefix__b" fill="#fff">
            <use xlink:href="#prefix__a"/>
        </mask>
        <path fill="#FFF" fill-rule="nonzero" d="M12 2c5.523 0 10 4.477 10 10s-4.477 10-10 10S2 17.523 2 12 6.477 2 12 2zm0 2c-4.418 0-8 3.582-8 8s3.582 8 8 8 8-3.582 8-8-3.582-8-8-8z" mask="url(#prefix__b)"/>
        <path fill="#FFF" fill-rule="nonzero" d="M16.587 8.95c.404-.377 1.037-.354 1.413.05.347.373.355.941.036 1.322l-.087.091-7.361 6.636-4.299-4.346c-.388-.392-.385-1.026.008-1.414.362-.358.93-.383 1.32-.076l.094.084 2.933 2.965 5.943-5.313z" mask="url(#prefix__b)"/>
    </g>
</svg>
